<?xml version="1.0" encoding="UTF-8"?>
<svg version="1.1" xmlns="http://www.w3.org/2000/svg" width="226" height="226">
<path d="M0 0 C0.80079987 -0.00807175 1.60159973 -0.01614349 2.42666626 -0.02445984 C4.12280137 -0.03826102 5.81896379 -0.04900083 7.51513672 -0.05688477 C9.22160183 -0.06832134 10.92803359 -0.08863858 12.63427734 -0.1184082 C24.07158256 -0.31752099 33.83089412 0.62300018 44.7265625 4.23828125 C45.52497559 4.48457275 46.32338867 4.73086426 47.14599609 4.98461914 C75.52592848 13.99025217 99.361063 35.59850124 112.9765625 61.86328125 C120.59302352 77.21981626 123.91796926 93.1339662 123.96679688 110.18701172 C123.97640805 112.20583846 124.00745266 114.22360276 124.0390625 116.2421875 C124.08678657 128.44761753 122.29687599 140.1427705 118.1015625 151.67578125 C117.72197388 152.72536011 117.72197388 152.72536011 117.3347168 153.79614258 C106.50953357 182.42459363 84.44684525 204.8420319 56.73193359 217.37451172 C51.19305818 219.76026059 45.53201437 221.60433744 39.7265625 223.23828125 C38.64117187 223.55796875 37.55578125 223.87765625 36.4375 224.20703125 C17.91016012 228.80692253 -3.09700218 227.88730437 -21.2734375 222.23828125 C-22.33280518 221.92479736 -22.33280518 221.92479736 -23.41357422 221.60498047 C-40.35696434 216.51166234 -54.31700383 208.20772897 -67.2734375 196.23828125 C-68.36011719 195.27341797 -68.36011719 195.27341797 -69.46875 194.2890625 C-87.95454478 177.03814875 -100.91438781 149.97248231 -102.49267578 124.73217773 C-102.61323295 120.85644134 -102.6534103 116.99087822 -102.6484375 113.11328125 C-102.64822601 112.42952423 -102.64801453 111.74576721 -102.64779663 111.04129028 C-102.61448026 100.23841851 -101.69532988 90.49270218 -98.2734375 80.23828125 C-97.9228125 79.07425781 -97.5721875 77.91023438 -97.2109375 76.7109375 C-92.19005762 61.21245759 -84.38564203 48.05384103 -73.2734375 36.23828125 C-72.48324219 35.36816406 -71.69304687 34.49804688 -70.87890625 33.6015625 C-53.10526569 14.82575978 -26.2254868 0.25546001 0 0 Z " fill="#7FCFEB" transform="translate(102.2734375,-0.23828125)"/>
<path d="M0 0 C3.0625 0.3125 3.0625 0.3125 4.9375 1.5 C6.46216487 3.95640451 6.35911451 5.45452039 6.0625 8.3125 C4.72944641 10.21990967 4.72944641 10.21990967 2.8371582 12.04199219 C2.13254959 12.73331238 1.42794098 13.42463257 0.70198059 14.13690186 C-0.06979019 14.87031799 -0.84156097 15.60373413 -1.63671875 16.359375 C-2.423918 17.13001282 -3.21111725 17.90065063 -4.02217102 18.69464111 C-6.54486736 21.16282749 -9.08309218 23.61411362 -11.625 26.0625 C-14.14830899 28.49730145 -16.66743137 30.93575081 -19.17427063 33.38751221 C-20.7337913 34.91253727 -22.30266602 36.4280756 -23.88224792 37.93231201 C-28.68120244 42.62174272 -32.02567081 47.26910896 -34.9375 53.3125 C-35.4325 54.3025 -35.4325 54.3025 -35.9375 55.3125 C-36.76333844 59.89292351 -36.93874894 63.72676565 -34.3984375 67.75 C-31.30454993 71.09474332 -29.05627227 73.06388394 -24.5625 74.0625 C-12.30312031 71.52607662 -4.08045297 64.83248118 4.4140625 55.98046875 C5.77301741 54.59138577 7.13240502 53.202726 8.4921875 51.81445312 C10.60167444 49.6489992 12.70694854 47.4798181 14.8046875 45.30297852 C16.85086069 43.184305 18.91237967 41.08157886 20.9765625 38.98046875 C21.90959702 37.99931343 21.90959702 37.99931343 22.86148071 36.99833679 C25.68754992 34.13977825 27.45146059 32.50087133 31.35302734 31.2980957 C34.0625 31.3125 34.0625 31.3125 36.5 32.875 C38.0625 35.3125 38.0625 35.3125 38.09106445 37.99462891 C36.61045826 42.77066454 33.68797259 45.38466263 30.16796875 48.8359375 C29.4653743 49.54094391 28.76277985 50.24595032 28.03889465 50.97232056 C26.54768109 52.46255548 25.05024918 53.94659018 23.54711914 55.42480469 C21.28058358 57.65737473 19.0386455 59.91253798 16.79882812 62.171875 C6.81385888 72.14949899 -2.45708354 80.51366952 -15.9375 85.3125 C-15.17701607 86.06299118 -15.17701607 86.06299118 -14.40116882 86.8286438 C-9.61178835 91.55777607 -4.82975457 96.29420139 -0.05572796 101.03883553 C2.39858283 103.47752708 4.85558965 105.91336431 7.3190918 108.34277344 C10.15470159 111.13938685 12.97799451 113.94825426 15.80078125 116.7578125 C17.12279289 118.05659836 17.12279289 118.05659836 18.47151184 119.38162231 C23.97167015 124.8802619 28.46670364 129.52086069 28.5625 137.6875 C28.36771624 144.20390224 26.05132065 148.24543797 21.5703125 152.84375 C16.11288844 157.70736108 10.95391079 158.87909205 3.82421875 158.66015625 C-3.86765058 157.69187284 -7.69405072 152.68061363 -12.25 146.8125 C-13.18858473 145.57472293 -14.12474935 144.33510733 -15.05859375 143.09375 C-17.84922274 139.38689468 -20.7964692 135.83712851 -23.8125 132.3125 C-24.25247314 131.79751953 -24.69244629 131.28253906 -25.14575195 130.75195312 C-25.56945068 130.25630859 -25.99314941 129.76066406 -26.4296875 129.25 C-27.25726563 128.280625 -28.08484375 127.31125 -28.9375 126.3125 C-29.64567871 125.50232422 -29.64567871 125.50232422 -30.36816406 124.67578125 C-33.9375 120.53204058 -33.9375 120.53204058 -33.9375 118.3125 C-41.66919038 115.3244071 -50.83876694 114.04464213 -58.9375 116.3125 C-63.35301705 119.16138023 -65.88614544 123.82644808 -68.57910156 128.21582031 C-70.98922398 131.93582954 -73.85717406 135.28332377 -76.6875 138.6875 C-77.78563961 140.03215748 -78.88331382 141.37719521 -79.98046875 142.72265625 C-92.39354799 157.8279177 -92.39354799 157.8279177 -99.171875 158.55078125 C-105.14695763 158.72706474 -109.28195424 158.20726145 -113.9375 154.3125 C-118.81080619 149.56047519 -120.99190094 145.91838763 -121.3125 139.0625 C-121.17946968 133.61712574 -119.55033431 130.34865631 -115.9375 126.3125 C-112.28284716 122.92930693 -108.49058614 119.76345289 -104.60546875 116.64990234 C-102.15552366 114.68549965 -99.73682155 112.68338541 -97.3125 110.6875 C-96.43335937 109.97335938 -95.55421875 109.25921875 -94.6484375 108.5234375 C-92.72753461 106.95682218 -90.8170735 105.37736367 -88.9140625 103.7890625 C-87.93179688 102.97179687 -86.94953125 102.15453125 -85.9375 101.3125 C-85.050625 100.57 -84.16375 99.8275 -83.25 99.0625 C-80.9375 97.3125 -80.9375 97.3125 -77.9375 96.3125 C-82.05717714 91.32685566 -86.4794595 86.71373155 -91.09765625 82.1953125 C-91.65407806 81.64913269 -92.21049988 81.10295288 -92.78378296 80.54022217 C-95.10340528 78.26571425 -97.42478803 75.99333356 -99.76098633 73.73583984 C-110.58025293 63.26246352 -119.78474402 52.85587385 -120.2890625 37.12744141 C-120.42513662 24.05015174 -117.21825349 13.242879 -108.4375 3.1875 C-105.24822032 0.79554024 -103.85979152 0.80688372 -99.9375 1.3125 C-97.27981567 3.24865723 -97.27981567 3.24865723 -94.57470703 5.99414062 C-94.07639877 6.49157272 -93.57809052 6.98900482 -93.06468201 7.50151062 C-91.42692748 9.14343355 -89.81143058 10.80554951 -88.1953125 12.46875 C-87.06177065 13.61348658 -85.92689364 14.75690247 -84.79074097 15.89904785 C-81.8083075 18.90435738 -78.84433185 21.92724731 -75.8838501 24.9541626 C-72.85799383 28.04146684 -69.81501679 31.11179251 -66.7734375 34.18359375 C-60.81124143 40.21008095 -54.8684387 46.25524923 -48.9375 52.3125 C-48.41728271 51.36930908 -47.89706543 50.42611816 -47.36108398 49.4543457 C-46.65642165 48.1946371 -45.95140595 46.93512611 -45.24609375 45.67578125 C-44.9059021 45.05674927 -44.56571045 44.43771729 -44.21520996 43.79992676 C-41.19318882 38.43156112 -37.56387541 33.95779154 -33.203125 29.59375 C-32.69330078 29.08070312 -32.18347656 28.56765625 -31.65820312 28.0390625 C-31.09037109 27.46929687 -30.52253906 26.89953125 -29.9375 26.3125 C-28.53627252 24.88559911 -27.13524387 23.45850295 -25.734375 22.03125 C-19.51603005 15.73572581 -13.31097007 9.51527994 -6.59057617 3.7512207 C-2.59802419 0.27638555 -2.59802419 0.27638555 0 0 Z " fill="#03070A" transform="translate(159.9375,36.6875)"/>
<path d="M0 0 C6.35389664 1.37002398 9.56702598 4.74849172 13.26635742 9.82324219 C14.21980942 11.08538231 15.17560219 12.34575705 16.13354492 13.60449219 C16.61791016 14.24386719 17.10227539 14.88324219 17.60131836 15.54199219 C20.37451737 19.11984048 23.34285955 22.53140128 26.30200195 25.95556641 C28.78472043 28.84804527 31.02843938 31.77886512 33.14135742 34.94824219 C36.9596171 40.12313282 42.53319587 42.91162863 48.84057617 43.86621094 C50.54059459 43.99774521 52.24507141 44.08493904 53.94995117 44.11230469 C56.56775011 44.52538856 57.42437333 45.43732584 59.07885742 47.44824219 C58.5704157 51.60051627 58.07168466 53.60339267 54.82495117 56.36621094 C53.06756982 57.56593707 51.28909175 58.73545825 49.48901367 59.87011719 C47.11526531 61.27529328 47.11526531 61.27529328 45.72729492 62.96386719 C43.11411594 65.31696675 39.90125275 66.27315922 36.64135742 67.44824219 C35.92923096 67.70951904 35.21710449 67.9707959 34.48339844 68.23999023 C4.82046861 78.89683253 -25.0933807 75.78500248 -53.92114258 64.44824219 C-55.26696909 63.80717025 -56.60861376 63.15498848 -57.92114258 62.44824219 C-57.92114258 61.45824219 -57.92114258 60.46824219 -57.92114258 59.44824219 C-58.60176758 59.20074219 -59.28239258 58.95324219 -59.98364258 58.69824219 C-63.48979341 57.20626311 -66.63734626 55.37988708 -69.92114258 53.44824219 C-69.92114258 52.78824219 -69.92114258 52.12824219 -69.92114258 51.44824219 C-70.51926758 51.18011719 -71.11739258 50.91199219 -71.73364258 50.63574219 C-73.90840922 49.45515458 -75.1893077 48.18007707 -76.92114258 46.44824219 C-77.91114258 46.11824219 -78.90114258 45.78824219 -79.92114258 45.44824219 C-80.04489258 44.80886719 -80.16864258 44.16949219 -80.29614258 43.51074219 C-80.50239258 42.83011719 -80.70864258 42.14949219 -80.92114258 41.44824219 C-82.57552871 40.75165855 -84.24368576 40.08727336 -85.92114258 39.44824219 C-87.79614258 37.57324219 -87.79614258 37.57324219 -88.92114258 35.44824219 C-88.60864258 33.19824219 -88.60864258 33.19824219 -87.92114258 31.44824219 C-87.26114258 31.44824219 -86.60114258 31.44824219 -85.92114258 31.44824219 C-85.92114258 30.12824219 -85.92114258 28.80824219 -85.92114258 27.44824219 C-86.58114258 27.11824219 -87.24114258 26.78824219 -87.92114258 26.44824219 C-87.92114258 25.78824219 -87.92114258 25.12824219 -87.92114258 24.44824219 C-85.54614258 22.76074219 -85.54614258 22.76074219 -82.92114258 21.44824219 C-82.26114258 21.77824219 -81.60114258 22.10824219 -80.92114258 22.44824219 C-80.32758644 25.09684646 -80.17904989 27.74021541 -79.92114258 30.44824219 C-79.26114258 30.44824219 -78.60114258 30.44824219 -77.92114258 30.44824219 C-76.9830179 31.88893366 -76.04738333 33.33134669 -75.12817383 34.78417969 C-72.49504191 38.41432272 -69.18874947 41.02570656 -64.92114258 42.44824219 C-63.32120815 42.5914377 -61.71469946 42.66863745 -60.10864258 42.69824219 C-59.27719727 42.72402344 -58.44575195 42.74980469 -57.58911133 42.77636719 C-46.68278149 41.43503233 -39.8165732 29.68386497 -33.48364258 21.63574219 C-33.02062744 21.05767822 -32.5576123 20.47961426 -32.08056641 19.8840332 C-29.6655354 16.83304823 -27.46716214 13.77277184 -25.44848633 10.44433594 C-18.78254907 -0.05340816 -12.27816583 -1.81703687 0 0 Z " fill="#7FCFEB" transform="translate(117.921142578125,151.5517578125)"/>
<path d="M0 0 C3.0625 0.3125 3.0625 0.3125 4.9375 1.5 C6.46216487 3.95640451 6.35911451 5.45452039 6.0625 8.3125 C4.72944641 10.21990967 4.72944641 10.21990967 2.8371582 12.04199219 C2.13254959 12.73331238 1.42794098 13.42463257 0.70198059 14.13690186 C-0.06979019 14.87031799 -0.84156097 15.60373413 -1.63671875 16.359375 C-2.423918 17.13001282 -3.21111725 17.90065063 -4.02217102 18.69464111 C-6.54486736 21.16282749 -9.08309218 23.61411362 -11.625 26.0625 C-14.14830899 28.49730145 -16.66743137 30.93575081 -19.17427063 33.38751221 C-20.7337913 34.91253727 -22.30266602 36.4280756 -23.88224792 37.93231201 C-28.68120244 42.62174272 -32.02567081 47.26910896 -34.9375 53.3125 C-35.4325 54.3025 -35.4325 54.3025 -35.9375 55.3125 C-36.76333844 59.89292351 -36.93874894 63.72676565 -34.3984375 67.75 C-31.30454993 71.09474332 -29.05627227 73.06388394 -24.5625 74.0625 C-12.30312031 71.52607662 -4.08045297 64.83248118 4.4140625 55.98046875 C5.77301741 54.59138577 7.13240502 53.202726 8.4921875 51.81445312 C10.60167444 49.6489992 12.70694854 47.4798181 14.8046875 45.30297852 C16.85086069 43.184305 18.91237967 41.08157886 20.9765625 38.98046875 C21.59858551 38.3263652 22.22060852 37.67226166 22.86148071 36.99833679 C25.68754992 34.13977825 27.45146059 32.50087133 31.35302734 31.2980957 C34.0625 31.3125 34.0625 31.3125 36.5 32.875 C38.0625 35.3125 38.0625 35.3125 38.09106445 37.99462891 C36.61045826 42.77066454 33.68797259 45.38466263 30.16796875 48.8359375 C29.4653743 49.54094391 28.76277985 50.24595032 28.03889465 50.97232056 C26.54768109 52.46255548 25.05024918 53.94659018 23.54711914 55.42480469 C21.28058358 57.65737473 19.0386455 59.91253798 16.79882812 62.171875 C6.81385888 72.14949899 -2.45708354 80.51366952 -15.9375 85.3125 C-15.17701607 86.06299118 -15.17701607 86.06299118 -14.40116882 86.8286438 C-9.61178835 91.55777607 -4.82975457 96.29420139 -0.05572796 101.03883553 C2.39858283 103.47752708 4.85558965 105.91336431 7.3190918 108.34277344 C10.15470159 111.13938685 12.97799451 113.94825426 15.80078125 116.7578125 C17.12279289 118.05659836 17.12279289 118.05659836 18.47151184 119.38162231 C23.97167015 124.8802619 28.46670364 129.52086069 28.5625 137.6875 C28.36771624 144.20390224 26.05132065 148.24543797 21.5703125 152.84375 C16.02461546 157.78602923 10.94159274 158.74583233 3.734375 158.6484375 C-0.12521197 158.16316779 -2.02798291 156.82883911 -4.9375 154.3125 C-4.70524367 150.82865511 -4.55758825 148.9125854 -2 146.4375 C1.11358631 145.2937336 2.86601818 145.25483105 6.125 145.375 C10.11239473 145.4915097 10.11239473 145.4915097 13.6875 143.75 C15.69893957 140.18426621 15.80537368 138.36453823 15.0625 134.3125 C9.85590685 126.82257835 2.41905764 120.5407099 -4.0390625 114.11328125 C-5.20557302 112.94864075 -6.37185929 111.78377561 -7.53793335 110.61869812 C-10.58823767 107.57218428 -13.64153099 104.52868384 -16.69549561 101.48583984 C-19.79881267 98.39276944 -22.89929097 95.29685637 -26 92.20117188 C-31.45483535 86.75586689 -36.91212778 81.31303532 -42.37124634 75.87202454 C-44.06759124 74.18012772 -45.76171995 72.48600567 -47.45350647 70.78955078 C-49.95181815 68.29822187 -52.47309343 65.83281992 -55.00317383 63.3737793 C-59.85745089 58.64982389 -64.69166093 53.90588438 -69.51457691 49.14992046 C-72.42508985 46.28126721 -75.34267117 43.42061688 -78.27709961 40.57641602 C-81.12747733 37.8130849 -83.95774429 35.03054523 -86.77527428 32.23374367 C-87.8483941 31.17535756 -88.92850971 30.12401467 -90.01572609 29.08011436 C-99.56235637 19.89941202 -99.56235637 19.89941202 -99.72143555 14.79223633 C-98.9375 11.3125 -98.9375 11.3125 -96.9375 8.3125 C-92.48506979 8.80676518 -90.5418124 10.21728126 -87.42260742 13.37329102 C-86.56209274 14.23410782 -85.70157806 15.09492462 -84.81498718 15.98182678 C-83.9002211 16.91723801 -82.98545502 17.85264923 -82.04296875 18.81640625 C-81.08692122 19.77991855 -80.12998339 20.7425482 -79.17219543 21.70433044 C-76.65950885 24.23225477 -74.15906857 26.77196089 -71.66101074 29.31433105 C-69.10748312 31.9088515 -66.54252681 34.49201865 -63.97851562 37.07617188 C-58.95361588 42.14390953 -53.94156895 47.22418537 -48.9375 52.3125 C-48.41728271 51.36930908 -47.89706543 50.42611816 -47.36108398 49.4543457 C-46.65642165 48.1946371 -45.95140595 46.93512611 -45.24609375 45.67578125 C-44.9059021 45.05674927 -44.56571045 44.43771729 -44.21520996 43.79992676 C-41.19023429 38.42631265 -37.56897825 33.96289824 -33.203125 29.59375 C-32.69330078 29.08070312 -32.18347656 28.56765625 -31.65820312 28.0390625 C-31.09037109 27.46929687 -30.52253906 26.89953125 -29.9375 26.3125 C-28.53627252 24.88559911 -27.13524387 23.45850295 -25.734375 22.03125 C-19.51603005 15.73572581 -13.31097007 9.51527994 -6.59057617 3.7512207 C-2.59802419 0.27638555 -2.59802419 0.27638555 0 0 Z " fill="#020508" transform="translate(159.9375,36.6875)"/>
<path d="M0 0 C3.74753766 1.56115535 6.11753669 3.8758559 8.96459961 6.73754883 C9.44483078 7.21748795 9.92506195 7.69742706 10.41984558 8.19190979 C12.00213353 9.77558787 13.57721961 11.36623055 15.15234375 12.95703125 C16.25522254 14.06364415 17.35854668 15.16981338 18.46229553 16.27555847 C21.36641257 19.18730428 24.26448034 22.10499914 27.16131592 25.02398682 C30.09809731 27.98115341 33.04047086 30.93274359 35.98242188 33.88476562 C41.16858632 39.09005734 46.34979786 44.30023446 51.52745056 49.51399231 C55.99500913 54.00586809 60.48143176 58.47880756 64.96777344 62.9519043 C70.79292588 68.7607721 76.61557599 74.57214133 82.43677902 80.38496685 C85.95377191 83.89671792 89.47170378 87.40751809 92.99169922 90.91625977 C96.4036703 94.31739579 99.81321936 97.72094228 103.22107697 101.12619972 C104.52001424 102.4232866 105.81983262 103.71949172 107.1205368 105.01480675 C108.93261081 106.8196604 110.74157047 108.62757986 112.54980469 110.4362793 C113.09004776 110.97292709 113.63029083 111.50957489 114.18690491 112.06248474 C117.36531085 115.24979689 118.8613159 116.7749571 119.375 121.3125 C119 125 119 125 116.9375 127.9375 C113.2404927 130.53327109 111.43355658 130.71253588 107 130 C102.90444301 127.19882488 100.02115503 123.7354739 97.0625 119.8125 C96.10453624 118.57032361 95.14481303 117.32950267 94.18359375 116.08984375 C93.67425293 115.43226074 93.16491211 114.77467773 92.64013672 114.09716797 C89.68363148 110.31681965 86.66064561 106.59191262 83.625 102.875 C82.75113647 101.79182495 82.75113647 101.79182495 81.85961914 100.68676758 C77.24663747 95.05620666 72.3499176 89.72603643 65 88 C62.67015832 88.02497024 60.34039892 88.05814058 58.01074219 88.09667969 C48.7267779 87.77336263 43.77614177 82.62243168 37.703125 76.140625 C36.61370099 75.03010566 35.52125059 73.92254802 34.42596436 72.81781006 C31.57366083 69.92374587 28.76667564 66.98936398 25.96679688 64.04467773 C23.6741815 61.64806004 21.35159841 59.28175004 19.02678299 56.91641617 C14.21712355 52.02224833 9.42690517 47.10855489 4.69238281 42.14160156 C3.85604309 41.2674762 3.01970337 40.39335083 2.15802002 39.49273682 C-4.56342826 31.72876733 -5.44100627 23.67357416 -5.33203125 13.6875 C-4.89065237 8.78559813 -3.60477071 3.60477071 0 0 Z " fill="#7FCEEA" transform="translate(57,53)"/>
<path d="M0 0 C0.33 0 0.66 0 1 0 C1 2.64 1 5.28 1 8 C1.66 8 2.32 8 3 8 C3.99 8 4.98 8 6 8 C6.495 8.99 6.495 8.99 7 10 C9.32156597 10.40729228 11.6568787 10.74438677 14 11 C17.25570776 18.21156773 17.25570776 18.21156773 16.25 21.3125 C15.63125 22.1478125 15.63125 22.1478125 15 23 C14.505 24.485 14.505 24.485 14 26 C14.99 25.67 15.98 25.34 17 25 C16.6875 26.875 16.6875 26.875 16 29 C15.01 29.66 14.02 30.32 13 31 C13.66 31 14.32 31 15 31 C15.99 31 16.98 31 18 31 C18 30.34 18 29.68 18 29 C18.66 29 19.32 29 20 29 C20.495 27.515 20.495 27.515 21 26 C21.66 26 22.32 26 23 26 C21.66347312 28.96019752 20.18869997 31.07366341 17.91821289 33.38818359 C17.29318375 34.02920013 16.6681546 34.67021667 16.02418518 35.33065796 C15.34718063 36.01302521 14.67017609 36.69539246 13.97265625 37.3984375 C13.26910507 38.11101715 12.56555389 38.8235968 11.84068298 39.55776978 C10.34795251 41.06500258 8.85239849 42.56944345 7.35424805 44.07128906 C5.0897364 46.34762143 2.84457483 48.64191108 0.59960938 50.9375 C-8.77347052 60.41625761 -16.76552343 67.99323989 -30.1875 70.625 C-35.38438797 69.77305115 -37.71613792 67.4526581 -41.2265625 63.63671875 C-43.62254091 60.07441605 -43.98904906 57.62250501 -43.546875 53.40234375 C-40.11945657 38.34618424 -23.58591305 26.51460457 -12.97119141 16.14257812 C-11.01575701 14.22933371 -9.06978423 12.30687331 -7.125 10.3828125 C-6.52405518 9.80048859 -5.92311035 9.21816467 -5.30395508 8.61819458 C-2.48779625 5.81967531 -0.72337879 3.9142874 0 0 Z " fill="#81CCE6" transform="translate(166,41)"/>
<path d="M0 0 C1.9375 1.125 1.9375 1.125 3 3 C3.05580044 8.53561059 0.48802089 11.11997514 -3.16888428 14.86361694 C-3.89174622 15.57635773 -4.61460815 16.28909851 -5.359375 17.0234375 C-6.47146332 18.14270126 -6.47146332 18.14270126 -7.60601807 19.28457642 C-9.17358464 20.85553991 -10.74746114 22.42022897 -12.32714844 23.97900391 C-14.74500092 26.37005633 -17.13499957 28.78663604 -19.5234375 31.20703125 C-21.0504824 32.73077276 -22.57907725 34.25296287 -24.109375 35.7734375 C-24.82414001 36.49832367 -25.53890503 37.22320984 -26.27532959 37.97006226 C-26.95242981 38.63140167 -27.62953003 39.29274109 -28.32714844 39.97412109 C-28.91703552 40.56003021 -29.50692261 41.14593933 -30.11468506 41.74960327 C-32.57687028 43.38259746 -34.09961692 43.35322598 -37 43 C-39.375 41.3125 -39.375 41.3125 -41 39 C-40.73960126 34.42770455 -38.83120185 32.2556095 -35.75 29 C-35.29052979 28.51233154 -34.83105957 28.02466309 -34.35766602 27.5222168 C-28.97386706 21.8665685 -23.44586903 16.34657195 -17.9375 10.8125 C-17.46316528 10.33530518 -16.98883057 9.85811035 -16.50012207 9.36645508 C-15.13722567 7.99779017 -13.76986746 6.63357272 -12.40234375 5.26953125 C-11.60304443 4.47135986 -10.80374512 3.67318848 -9.98022461 2.85083008 C-6.6942536 -0.22042454 -4.44488999 -0.36284816 0 0 Z " fill="#030609" transform="translate(179,53)"/>
<path d="M0 0 C0.53882813 0.26296875 1.07765625 0.5259375 1.6328125 0.796875 C1.14764786 5.15280966 -1.70734227 7.84345135 -4.4921875 10.984375 C-5.50265349 12.14987139 -6.51176799 13.31654087 -7.51953125 14.484375 C-8.01050293 15.0515625 -8.50147461 15.61875 -9.00732422 16.203125 C-11.33223161 18.92789976 -13.50264898 21.76553348 -15.68359375 24.60546875 C-18.84677379 28.72274022 -22.06948858 32.78653775 -25.3671875 36.796875 C-26.06328125 37.65925781 -26.06328125 37.65925781 -26.7734375 38.5390625 C-28.92102593 40.97574937 -30.20117906 41.76638365 -33.4296875 42.359375 C-37.07411901 41.66150514 -38.27608087 40.85310777 -40.3671875 37.796875 C-40.7578125 34.94140625 -40.7578125 34.94140625 -40.3671875 31.796875 C-38.453125 29.41015625 -38.453125 29.41015625 -35.7421875 27.109375 C-35.25218262 26.68712646 -34.76217773 26.26487793 -34.25732422 25.82983398 C-29.85913186 22.08538982 -25.30312397 18.52076772 -20.72460938 15.00024414 C-17.64237282 12.6247059 -14.64345197 10.19809809 -11.7265625 7.62109375 C-11.14116699 7.10667725 -10.55577148 6.59226074 -9.95263672 6.06225586 C-8.83537068 5.07240855 -7.72711571 4.07226979 -6.62939453 3.06079102 C-2.88253903 -0.24734658 -2.88253903 -0.24734658 0 0 Z " fill="#85C9E7" transform="translate(91.3671875,141.203125)"/>
<path d="M0 0 C0.33 0 0.66 0 1 0 C2.56951742 25.63545113 -11.66159528 51.33405718 -28 70 C-35.14589398 78.07527325 -42.95051448 84.24123648 -52 90 C-52.76183594 90.48855469 -53.52367187 90.97710937 -54.30859375 91.48046875 C-56.1875 92.625 -56.1875 92.625 -59 94 C-59.66 93.67 -60.32 93.34 -61 93 C-60.21753906 92.49210937 -59.43507812 91.98421875 -58.62890625 91.4609375 C-57.61699219 90.77257812 -56.60507813 90.08421875 -55.5625 89.375 C-54.55316406 88.70210938 -53.54382813 88.02921875 -52.50390625 87.3359375 C-49.76687409 85.17064957 -49.76687409 85.17064957 -49.02734375 81.8515625 C-49.01832031 80.91054687 -49.00929687 79.96953125 -49 79 C-51.49505962 76.50494038 -52.67328888 76.64051624 -56.125 76.375 C-57.03507813 76.30023438 -57.94515625 76.22546875 -58.8828125 76.1484375 C-59.93082031 76.07496094 -59.93082031 76.07496094 -61 76 C-61 75.67 -61 75.34 -61 75 C-60.27554688 74.90203125 -59.55109375 74.8040625 -58.8046875 74.703125 C-51.54832357 73.58080738 -46.79892198 72.10991331 -41.75 66.5 C-38.614674 62.02096286 -37.7544511 59.29524943 -37.875 53.75 C-37.90207031 52.13351563 -37.90207031 52.13351563 -37.9296875 50.484375 C-37.95289063 49.66453125 -37.97609375 48.8446875 -38 48 C-37.34 48 -36.68 48 -36 48 C-34.90493508 51.28519475 -34.90039392 53.73663415 -34.9375 57.1875 C-34.94652344 58.27417969 -34.95554688 59.36085937 -34.96484375 60.48046875 C-34.97644531 61.31191406 -34.98804688 62.14335937 -35 63 C-36.485 63.495 -36.485 63.495 -38 64 C-38 66.97 -38 69.94 -38 73 C-36.68 73 -35.36 73 -34 73 C-33.34 71.02 -32.68 69.04 -32 67 C-30.35 67 -28.7 67 -27 67 C-26.731875 66.443125 -26.46375 65.88625 -26.1875 65.3125 C-24.89100504 62.78774666 -23.57523677 60.36285516 -22 58 C-21.34 58 -20.68 58 -20 58 C-19.79375 57.195625 -19.5875 56.39125 -19.375 55.5625 C-18.19247476 52.49868459 -17.13141778 50.66299369 -15.25 48.0625 C-12.45798451 44.02196653 -10.51252357 39.90907784 -8.6875 35.375 C-8.43323242 34.75375244 -8.17896484 34.13250488 -7.91699219 33.49243164 C-6.30010954 29.33858314 -5.56298265 25.40481797 -5 21 C-4.5675546 19.58899243 -4.09301387 18.18963704 -3.5625 16.8125 C-1.63064598 11.33891361 -0.82391236 5.72861418 0 0 Z " fill="#80CFEA" transform="translate(225,120)"/>
<path d="M0 0 C1.32 0.66 2.64 1.32 4 2 C4.21508025 7.48454629 3.83278764 11.20258728 0.8125 15.8125 C-2.02275925 17.67008365 -4.7085633 17.18630774 -8 17 C-8.33 17.66 -8.66 18.32 -9 19 C-10.32 18.67 -11.64 18.34 -13 18 C-13.828125 15.3359375 -13.828125 15.3359375 -14 12 C-12.26841529 9.82016819 -10.85412172 8.35319923 -8.75 6.625 C-8.24597656 6.17511719 -7.74195313 5.72523438 -7.22265625 5.26171875 C-3.44540748 2 -3.44540748 2 0 2 C0 1.34 0 0.68 0 0 Z " fill="#80CEEA" transform="translate(66,162)"/>
<path d="M0 0 C4.53790992 0.86508854 6.97881262 3.48204669 10.125 6.6875 C10.69758545 7.26910889 11.2701709 7.85071777 11.86010742 8.44995117 C29.64873249 26.9520039 41.9140302 52.03712058 42 78 C41.01 77.505 41.01 77.505 40 77 C39.5078125 74.5859375 39.5078125 74.5859375 39.125 71.375 C37.26228338 58.19158706 34.16166913 43.79816337 26 33 C25.3125 30.25 25.3125 30.25 25 28 C24.34 28 23.68 28 23 28 C22.505 27.05125 22.01 26.1025 21.5 25.125 C17.14204735 17.54461757 11.55403243 11.05376249 4.76171875 5.5703125 C2.86417792 3.87893464 1.45936081 2.07453752 0 0 Z " fill="#80B0C6" transform="translate(184,26)"/>
<path d="M0 0 C0.33 0 0.66 0 1 0 C2.56430089 25.55024784 -11.60770563 51.44352323 -28 70 C-37.62927381 80.54309127 -37.62927381 80.54309127 -42 82 C-40.98072737 78.33061852 -40.27049335 77.17469362 -37 75.0625 C-33.48369308 72.64503899 -32.92665722 71.07729176 -32 67 C-30.35 67 -28.7 67 -27 67 C-26.731875 66.443125 -26.46375 65.88625 -26.1875 65.3125 C-24.89100504 62.78774666 -23.57523677 60.36285516 -22 58 C-21.34 58 -20.68 58 -20 58 C-19.690625 56.7934375 -19.690625 56.7934375 -19.375 55.5625 C-18.19247476 52.49868459 -17.13141778 50.66299369 -15.25 48.0625 C-12.45798451 44.02196653 -10.51252357 39.90907784 -8.6875 35.375 C-8.43323242 34.75375244 -8.17896484 34.13250488 -7.91699219 33.49243164 C-6.30010954 29.33858314 -5.56298265 25.40481797 -5 21 C-4.5675546 19.58899243 -4.09301387 18.18963704 -3.5625 16.8125 C-1.63064598 11.33891361 -0.82391236 5.72861418 0 0 Z " fill="#87BACD" transform="translate(225,120)"/>
<path d="M0 0 C0.82886719 0.05349609 1.65773438 0.10699219 2.51171875 0.16210938 C3.34058594 0.17306641 4.16945312 0.18402344 5.0234375 0.1953125 C10.047048 0.35903907 13.62551891 1.19367992 18.01171875 3.84960938 C15.01171875 4.84960938 15.01171875 4.84960938 12.01171875 3.78710938 C11.02171875 3.47773438 10.03171875 3.16835937 9.01171875 2.84960938 C8.02171875 3.50960937 7.03171875 4.16960937 6.01171875 4.84960938 C3.234375 5.19335938 3.234375 5.19335938 0.07421875 5.34960938 C-5.27131395 5.58084923 -5.27131395 5.58084923 -9.98828125 7.84960938 C-11.36146481 9.80544901 -11.36146481 9.80544901 -12.42578125 12.09960938 C-14.57102898 16.19809191 -16.8018901 19.49098087 -19.98828125 22.84960938 C-20.64828125 22.84960938 -21.30828125 22.84960938 -21.98828125 22.84960938 C-22.64828125 24.82960937 -23.30828125 26.80960938 -23.98828125 28.84960938 C-25.63828125 29.17960937 -27.28828125 29.50960937 -28.98828125 29.84960938 C-26.39782472 25.1355277 -23.09327557 21.16060139 -19.67578125 17.03710938 C-18.55313852 15.67771001 -17.4320404 14.31703356 -16.3125 12.95507812 C-15.75288574 12.28565186 -15.19327148 11.61622559 -14.61669922 10.92651367 C-12.94625244 8.87112076 -12.94625244 8.87112076 -11.56689453 6.5793457 C-8.30602237 1.46898131 -6.13596222 -0.09267352 0 0 Z " fill="#83C3D7" transform="translate(107.98828125,151.150390625)"/>
<path d="M0 0 C0.66 0 1.32 0 2 0 C1.86722656 0.66644531 1.73445312 1.33289063 1.59765625 2.01953125 C-3.24958882 27.31719712 -2.04890475 53.38691214 9 77 C9.66 77.66 10.32 78.32 11 79 C11.125 81.625 11.125 81.625 11 84 C-0.30012167 70.48679812 -3.19268039 47.82519874 -3.24023438 31.0168457 C-3.24986058 28.96718495 -3.28089825 26.91856344 -3.3125 24.86914062 C-3.37997718 16.20656173 -2.36583266 8.34375298 0 0 Z " fill="#7DB1C6" transform="translate(3,84)"/>
<path d="M0 0 C0.99 0 1.98 0 3 0 C3.66 1.65 4.32 3.3 5 5 C4.34 5 3.68 5 3 5 C2.731875 5.639375 2.46375 6.27875 2.1875 6.9375 C1 9 1 9 -2 10 C-2 10.99 -2 11.98 -2 13 C-4.67871003 14.78580669 -5.99677943 15.3430455 -9 16 C-9.99 16.33 -10.98 16.66 -12 17 C-12.99 16.01 -13.98 15.02 -15 14 C-13.1875 12 -13.1875 12 -11 10 C-10.01 10 -9.02 10 -8 10 C-8 9.34 -8 8.68 -8 8 C-7.01 7.34 -6.02 6.68 -5 6 C-4.27034634 3.43717258 -4.27034634 3.43717258 -4 1 C-2.68 1.33 -1.36 1.66 0 2 C0 1.34 0 0.68 0 0 Z " fill="#7FD0EC" transform="translate(169,77)"/>
<path d="M0 0 C0.66 0 1.32 0 2 0 C2.433125 0.928125 2.86625 1.85625 3.3125 2.8125 C4.71626395 5.8455807 4.71626395 5.8455807 6.296875 7.2890625 C9.31223263 10.31825204 11.72527601 13.89955405 14.24023438 17.34960938 C16.57921563 20.46943414 18.40157217 22.48102482 22 24 C22.75 26.125 22.75 26.125 23 28 C24.32 28.33 25.64 28.66 27 29 C27 29.66 27 30.32 27 31 C27.61875 31.309375 28.2375 31.61875 28.875 31.9375 C30.25 32.625 31.625 33.3125 33 34 C33 34.66 33 35.32 33 36 C33.57234375 36.11472656 34.1446875 36.22945312 34.734375 36.34765625 C37.21471656 37.06182356 39.06368697 38.07307872 41.25 39.4375 C41.95640625 39.86933594 42.6628125 40.30117187 43.390625 40.74609375 C43.92171875 41.15988281 44.4528125 41.57367188 45 42 C45 42.66 45 43.32 45 44 C26.08970866 36.90864075 9.99356952 19.03690975 0 2 C0 1.34 0 0.68 0 0 Z " fill="#86B5C8" transform="translate(15,169)"/>
<path d="M0 0 C0.721875 0.7425 1.44375 1.485 2.1875 2.25 C7.69477046 7.63488667 11.45648593 9.75096499 19 11 C16.82711465 13.17288535 15.98970481 13.64827002 13 14 C11.68 13.34 10.36 12.68 9 12 C9.33 14.97 9.66 17.94 10 21 C9.34 21 8.68 21 8 21 C8 20.34 8 19.68 8 19 C7.401875 18.731875 6.80375 18.46375 6.1875 18.1875 C4.00278087 17.00150961 2.70529205 15.77943518 1 14 C0.01 13.34 -0.98 12.68 -2 12 C-1.01 12 -0.02 12 1 12 C1.4640625 11.071875 1.4640625 11.071875 1.9375 10.125 C2.625 8.75 3.3125 7.375 4 6 C2.68 5.67 1.36 5.34 0 5 C0 3.35 0 1.7 0 0 Z " fill="#81CBE5" transform="translate(40,184)"/>
<path d="M0 0 C0 0.66 0 1.32 0 2 C-0.66 2 -1.32 2 -2 2 C-2 2.66 -2 3.32 -2 4 C-3.57421875 5.515625 -3.57421875 5.515625 -5.6875 7.25 C-10.10351285 11.01063285 -13.65149175 14.71790912 -16.625 19.75 C-18 22 -18 22 -21 24 C-22.87810176 26.7388984 -24.18961343 29.44243134 -25.5 32.5 C-27 36 -27 36 -28.5 38.375 C-31.18600768 43.07551344 -32.49598691 48.33972159 -34.0625 53.5 C-35 56 -35 56 -37 57 C-35.89219083 49.97123747 -34.00076703 43.94537435 -30.875 37.5625 C-30.27558594 36.32318726 -30.27558594 36.32318726 -29.6640625 35.05883789 C-24.35152633 24.34865569 -17.18404581 15.65338177 -9 7 C-8.32195313 6.28070313 -7.64390625 5.56140625 -6.9453125 4.8203125 C-2.27986948 0 -2.27986948 0 0 0 Z " fill="#7EADBE" transform="translate(41,26)"/>
<path d="M0 0 C3.16115776 1.36983503 3.9927092 1.9890638 6 5 C4 5 2 5 0 5 C-0.33 5.99 -0.66 6.98 -1 8 C-1.66 8 -2.32 8 -3 8 C-2.86142159 11.12536637 -2.71290431 14.25018217 -2.5625 17.375 C-2.52318359 18.26445313 -2.48386719 19.15390625 -2.44335938 20.0703125 C-2.40146484 20.92109375 -2.35957031 21.771875 -2.31640625 22.6484375 C-2.27974854 23.43395996 -2.24309082 24.21948242 -2.20532227 25.02880859 C-2.109109 27.07523496 -2.109109 27.07523496 -1 29 C-0.34 28.67 0.32 28.34 1 28 C1 31 1 34 1 37 C-5.25799671 30.11620362 -5.42951094 22.62018445 -5.33203125 13.6875 C-4.89065237 8.78559813 -3.60477071 3.60477071 0 0 Z " fill="#83C1D4" transform="translate(57,53)"/>
<path d="M0 0 C5.62219846 4.66522851 11.16010796 9.51259405 16 15 C16 15.66 16 16.32 16 17 C14.46875 18.2890625 14.46875 18.2890625 12.5 19.625 C11.8503125 20.07101563 11.200625 20.51703125 10.53125 20.9765625 C10.0259375 21.31429687 9.520625 21.65203125 9 22 C9 18.89448334 9.5393715 17.64738916 11 15 C10.34 14.01 9.68 13.02 9 12 C9 11.34 9 10.68 9 10 C6.525 9.01 6.525 9.01 4 8 C3.67 8.33 3.34 8.66 3 9 C2.01 9.33 1.02 9.66 0 10 C-0.66 9.34 -1.32 8.68 -2 8 C-1.63723355 5.17042171 -0.90305236 2.70915709 0 0 Z " fill="#82C6E0" transform="translate(66,116)"/>
<path d="M0 0 C-14.3513579 5.82027292 -27.37302175 10.26906069 -43 11 C-43 10.34 -43 9.68 -43 9 C-41.94941406 8.90203125 -40.89882812 8.8040625 -39.81640625 8.703125 C-32.84830141 7.98687096 -26.65938604 7.32105861 -20.35546875 4.08984375 C-14.27307481 1.27560178 -6.61147555 -1.97834246 0 0 Z " fill="#84B8C8" transform="translate(164,215)"/>
<path d="M0 0 C4.53869011 0.86523728 6.97715364 3.48308607 10.125 6.6875 C10.69323486 7.26040771 11.26146973 7.83331543 11.84692383 8.42358398 C18.49163369 15.2972613 25.00082834 23.25314861 29 32 C28.34 32.99 27.68 33.98 27 35 C26.34 32.69 25.68 30.38 25 28 C24.34 28 23.68 28 23 28 C22.505 27.05125 22.01 26.1025 21.5 25.125 C17.14204735 17.54461757 11.55403243 11.05376249 4.76171875 5.5703125 C2.86417792 3.87893464 1.45936081 2.07453752 0 0 Z " fill="#87B6CB" transform="translate(184,26)"/>
<path d="M0 0 C0.66 0.33 1.32 0.66 2 1 C1.67 2.32 1.34 3.64 1 5 C0.01 4.67 -0.98 4.34 -2 4 C-2 4.66 -2 5.32 -2 6 C-2.66 6.391875 -3.32 6.78375 -4 7.1875 C-8.09555352 9.66189692 -11.85142389 12.36879543 -15 16 C-15.67350769 19.29987653 -15.67350769 19.29987653 -15 22 C-13.68 22.33 -12.36 22.66 -11 23 C-10.67 22.01 -10.34 21.02 -10 20 C-8.02 20.33 -6.04 20.66 -4 21 C-5 24 -5 24 -7 25 C-10.5817622 25.38932198 -12.36281721 25.43596718 -15.375 23.375 C-17.50435144 20.26287097 -17.49548257 18.72070708 -17 15 C-14.8046875 12.40234375 -14.8046875 12.40234375 -11.875 9.9375 C-10.87597656 9.08285156 -9.87695312 8.22820312 -8.84765625 7.34765625 C-7.90792969 6.57292969 -6.96820313 5.79820312 -6 5 C-4.97712891 4.13181641 -4.97712891 4.13181641 -3.93359375 3.24609375 C-2.63559272 2.14826638 -1.32049199 1.07066918 0 0 Z " fill="#85B6CA" transform="translate(68,158)"/>
<path d="M0 0 C2.0625 0.4375 2.0625 0.4375 4 1 C3.49477778 5.37859255 0.82172778 7.81651224 -2 11 C-2.66 10.01 -3.32 9.02 -4 8 C-4.99 8 -5.98 8 -7 8 C-7.2475 8.61875 -7.495 9.2375 -7.75 9.875 C-9.22879539 12.38895216 -10.37921165 12.8534051 -13 14 C-13.66 14.66 -14.32 15.32 -15 16 C-15.66 15.34 -16.32 14.68 -17 14 C-16.52054932 13.61142822 -16.04109863 13.22285645 -15.54711914 12.82250977 C-13.38510408 11.06975857 -11.2237935 9.31614086 -9.0625 7.5625 C-7.93038086 6.64500977 -7.93038086 6.64500977 -6.77539062 5.70898438 C-6.05673828 5.12568359 -5.33808594 4.54238281 -4.59765625 3.94140625 C-3.93258057 3.40201416 -3.26750488 2.86262207 -2.58227539 2.30688477 C-1.06012522 1.09175471 -1.06012522 1.09175471 0 0 Z " fill="#84BFD4" transform="translate(89,141)"/>
<path d="M0 0 C6.41069287 5.27101414 12.18590512 11.09128152 18 17 C17.34 17.66 16.68 18.32 16 19 C16 18.34 16 17.68 16 17 C15.34 17.33 14.68 17.66 14 18 C14.33 18.66 14.66 19.32 15 20 C13.0625 19.1875 13.0625 19.1875 11 18 C10 15 10 15 10 13 C9.34 12.67 8.68 12.34 8 12 C7.01 13.485 7.01 13.485 6 15 C4.73858669 12.72945605 3.99286899 10.95721392 3.5625 8.375 C3.19997155 5.6408946 3.19997155 5.6408946 0 4 C0 2.68 0 1.36 0 0 Z " fill="#7FC2DC" transform="translate(93,88)"/>
<path d="M0 0 C4.91935902 4.11619836 9.52647956 8.40410362 14 13 C13.34 13.66 12.68 14.32 12 15 C11.5875 14.525625 11.175 14.05125 10.75 13.5625 C8.817815 11.83733482 7.51807725 11.43415125 5 11 C4.67 11.99 4.34 12.98 4 14 C3.87625 13.360625 3.7525 12.72125 3.625 12.0625 C3.41875 11.381875 3.2125 10.70125 3 10 C2.34 9.67 1.68 9.34 1 9 C1 8.67 1 8.34 1 8 C0.34 8 -0.32 8 -1 8 C-1.08226668 4.95613276 -0.97608217 2.92824652 0 0 Z " fill="#80C3DB" transform="translate(137,132)"/>
<path d="M0 0 C0.33 1.32 0.66 2.64 1 4 C-0.175625 4.37125 -0.175625 4.37125 -1.375 4.75 C-4.39061729 6.18600823 -4.78214656 7.00220692 -6 10 C-6.66 10.66 -7.32 11.32 -8 12 C-9.02304948 13.65261839 -10.02616054 15.31791365 -11 17 C-11.99 16.34 -12.98 15.68 -14 15 C-13.58443583 10.15175132 -11.62551755 8.11963138 -8 5 C-6.68163705 4.30419733 -5.35208914 3.62775567 -4 3 C-3.67 2.34 -3.34 1.68 -3 1 C-2.01 0.67 -1.02 0.34 0 0 Z " fill="#7FD0EE" transform="translate(85,148)"/>
<path d="M0 0 C0 3 0 3 -2.3125 5.375 C-3.199375 6.24125 -4.08625 7.1075 -5 8 C-6.64081486 10.52433056 -8.02874294 13.05748587 -9.375 15.75 C-11 18 -11 18 -13.6875 18.8125 C-14.450625 18.874375 -15.21375 18.93625 -16 19 C-16.33 19.99 -16.66 20.98 -17 22 C-18.65 22 -20.3 22 -22 22 C-14.66666667 14.66666667 -7.33333333 7.33333333 0 0 Z " fill="#89C5DB" transform="translate(182,92)"/>
<path d="M0 0 C0.99 0.33 1.98 0.66 3 1 C1.02 4.96 -0.96 8.92 -3 13 C-7.15358254 9.56530675 -10.78875342 6.36729534 -14 2 C-11.03824877 2.61277612 -9.61941217 3.25372522 -7 5 C-3.87478167 5.16699232 -3.87478167 5.16699232 -1 5 C-0.67 3.35 -0.34 1.7 0 0 Z " fill="#82BCD3" transform="translate(115,77)"/>
<path d="M0 0 C4.91935902 4.11619836 9.52647956 8.40410362 14 13 C13.34 13.66 12.68 14.32 12 15 C11.67 14.01 11.34 13.02 11 12 C8.05610218 10.82244087 7.10046087 10.96651304 4 12 C4 11.34 4 10.68 4 10 C2.68 10 1.36 10 0 10 C0.33 9.01 0.66 8.02 1 7 C1.66 7 2.32 7 3 7 C2.505 6.21625 2.01 5.4325 1.5 4.625 C0 2 0 2 0 0 Z " fill="#80C4DD" transform="translate(153,148)"/>
<path d="M0 0 C0.33 0 0.66 0 1 0 C1.76338179 12.46856924 -1.90118499 25.65808146 -7 37 C-7.99 37.495 -7.99 37.495 -9 38 C-8.79503906 37.35933594 -8.59007812 36.71867187 -8.37890625 36.05859375 C-7.16833784 32.172032 -6.06693701 28.47692622 -5.5 24.4375 C-5.08736207 21.60061424 -4.52020664 19.47120798 -3.5625 16.8125 C-1.63064598 11.33891361 -0.82391236 5.72861418 0 0 Z " fill="#7DADC1" transform="translate(225,120)"/>
<path d="M0 0 C1 3 1 3 0.0625 5.1875 C-0.288125 5.785625 -0.63875 6.38375 -1 7 C-1.66 7 -2.32 7 -3 7 C-3 7.66 -3 8.32 -3 9 C-3.804375 9.474375 -4.60875 9.94875 -5.4375 10.4375 C-8.2918076 11.79983672 -8.2918076 11.79983672 -9 15 C-12.5625 16.1875 -12.5625 16.1875 -16 17 C-11.01595832 10.96668638 -5.58084697 5.4815829 0 0 Z " fill="#86C0D6" transform="translate(164,78)"/>
<path d="M0 0 C0.66 0.33 1.32 0.66 2 1 C1.38125 1.2475 0.7625 1.495 0.125 1.75 C-2.39578467 3.23281451 -2.7852998 4.40863958 -4 7 C-7 9 -7 9 -10 9 C-10.33 9.66 -10.66 10.32 -11 11 C-12.65 11 -14.3 11 -16 11 C-11.64592545 5.89522294 -6.15201402 2.63516221 0 0 Z " fill="#83BBCE" transform="translate(62,11)"/>
<path d="M0 0 C0 3.77773318 -0.96765283 4.37439338 -3.5 7.0625 C-6.23444837 9.61867835 -6.23444837 9.61867835 -7 13 C-7.99 13 -8.98 13 -10 13 C-9.67 14.65 -9.34 16.3 -9 18 C-12 19 -12 19 -15 18 C-13.52357373 12.77345099 -10.17768064 9.83173561 -6.375 6.1875 C-5.76398438 5.59001953 -5.15296875 4.99253906 -4.5234375 4.37695312 C-3.02235161 2.91104894 -1.51207138 1.45457007 0 0 Z " fill="#8AC1D7" transform="translate(142,68)"/>
<path d="M0 0 C0.66 0 1.32 0 2 0 C3.09506492 3.28519475 3.09960608 5.73663415 3.0625 9.1875 C3.05347656 10.27417969 3.04445312 11.36085937 3.03515625 12.48046875 C3.02355469 13.31191406 3.01195312 14.14335937 3 15 C2.01 15.33 1.02 15.66 0 16 C0 17.32 0 18.64 0 20 C-2.375 21.8125 -2.375 21.8125 -5 23 C-5.66 22.67 -6.32 22.34 -7 22 C-5.76302083 20.56770833 -4.52604167 19.13541667 -3.2890625 17.703125 C-0.24197204 13.67727215 0.23503078 10.81141587 0.125 5.75 C0.10695312 4.67234375 0.08890625 3.5946875 0.0703125 2.484375 C0.04710937 1.66453125 0.02390625 0.8446875 0 0 Z " fill="#87CEDF" transform="translate(187,168)"/>
<path d="M0 0 C0.99 0 1.98 0 3 0 C3.66 0.66 4.32 1.32 5 2 C4.31164062 2.67095703 4.31164062 2.67095703 3.609375 3.35546875 C-3.03616088 9.14469714 -3.03616088 9.14469714 -6.25 16.8125 C-6.1675 17.534375 -6.085 18.25625 -6 19 C-6.66 19.33 -7.32 19.66 -8 20 C-8.4560284 14.29964499 -7.60412752 11.45215753 -4 7 C-3.34 6.67 -2.68 6.34 -2 6 C-2.33 5.34 -2.66 4.68 -3 4 C-2.67 3.34 -2.34 2.68 -2 2 C-1.34 2 -0.68 2 0 2 C0 1.34 0 0.68 0 0 Z " fill="#87CCE1" transform="translate(145,74)"/>
<path d="M0 0 C0 4.05345102 -1.58160112 5.8215329 -4 9 C-4.99 9.33 -5.98 9.66 -7 10 C-7.309375 10.61875 -7.61875 11.2375 -7.9375 11.875 C-9.20298687 14.40597375 -10.67272837 15.44848558 -13 17 C-13.33 16.01 -13.66 15.02 -14 14 C-9.38 9.38 -4.76 4.76 0 0 Z " fill="#11222D" transform="translate(161,64)"/>
<path d="M0 0 C7.00403677 -0.46253073 12.43615678 1.1551236 19 3.5 C19.96550781 3.83386719 20.93101562 4.16773438 21.92578125 4.51171875 C24.28789866 5.33027429 26.64550025 6.15983686 29 7 C28.67 7.66 28.34 8.32 28 9 C26.22739369 8.54857225 24.4569632 8.08859477 22.6875 7.625 C21.20830078 7.24214844 21.20830078 7.24214844 19.69921875 6.8515625 C17 6 17 6 14 4 C11.61917147 3.39578508 9.22024906 2.8609677 6.8125 2.375 C5.54019531 2.11460938 4.26789063 1.85421875 2.95703125 1.5859375 C1.98121094 1.39257812 1.00539062 1.19921875 0 1 C0 0.67 0 0.34 0 0 Z " fill="#83B7C9" transform="translate(129,1)"/>
<path d="M0 0 C7.625 1.875 7.625 1.875 11 3 C11 4.32 11 5.64 11 7 C11.99 7.33 12.98 7.66 14 8 C14 8.66 14 9.32 14 10 C14.66 10 15.32 10 16 10 C16.33 11.65 16.66 13.3 17 15 C16.29875 14.278125 15.5975 13.55625 14.875 12.8125 C9.962531 7.94142821 5.46214162 4.45561381 -1 2 C-0.67 1.34 -0.34 0.68 0 0 Z " fill="#83BDD5" transform="translate(123,139)"/>
<path d="M0 0 C2.8230448 1.19436511 4.31471877 2.32258674 6.5 4.5625 C10.3051181 7.9251625 14.61071183 7.64772881 19.48828125 7.76171875 C20.73158203 7.87966797 20.73158203 7.87966797 22 8 C22.33 8.66 22.66 9.32 23 10 C11.05142324 11.37672079 11.05142324 11.37672079 6.06640625 8.03125 C0 1.8969 0 1.8969 0 0 Z " fill="#84BCCE" transform="translate(98,130)"/>
<path d="M0 0 C8.7262585 3.37150896 17.87000159 7.77535901 24 15 C22.02 14.34 20.04 13.68 18 13 C18 12.34 18 11.68 18 11 C17.30390625 10.73058594 16.6078125 10.46117187 15.890625 10.18359375 C12.78572312 8.91226231 9.7700052 7.52415276 6.75 6.0625 C5.69296875 5.55847656 4.6359375 5.05445313 3.546875 4.53515625 C1 3 1 3 0 0 Z " fill="#88B4C4" transform="translate(159,9)"/>
<path d="M0 0 C4.52615993 3.67832017 8.39424999 7.41086363 12 12 C10.35 12.33 8.7 12.66 7 13 C5 10 5 10 5 8 C4.10664203 5.64214682 4.10664203 5.64214682 0.9375 4.875 C-0.5165625 4.441875 -0.5165625 4.441875 -2 4 C-1.34 2.68 -0.68 1.36 0 0 Z " fill="#7DBBD5" transform="translate(69,64)"/>
<path d="M0 0 C0 0.66 0 1.32 0 2 C-0.66 2 -1.32 2 -2 2 C-2 2.66 -2 3.32 -2 4 C-3.57421875 5.515625 -3.57421875 5.515625 -5.6875 7.25 C-9.25251403 10.2805763 -12.11985748 13.31981789 -15 17 C-15.763125 17.94875 -16.52625 18.8975 -17.3125 19.875 C-17.869375 20.57625 -18.42625 21.2775 -19 22 C-18.50334865 17.49809582 -16.95052876 15.38818814 -13.875 12.125 C-13.06675781 11.26390625 -12.25851563 10.4028125 -11.42578125 9.515625 C-10.62527344 8.68546875 -9.82476562 7.8553125 -9 7 C-8.31292969 6.27296875 -7.62585937 5.5459375 -6.91796875 4.796875 C-2.28683943 0 -2.28683943 0 0 0 Z " fill="#85B6C8" transform="translate(41,26)"/>
<path d="M0 0 C0.58426758 0.21261475 1.16853516 0.42522949 1.77050781 0.64428711 C-9.78763172 8.92335688 -9.78763172 8.92335688 -15.22949219 11.64428711 C-15.88949219 11.31428711 -16.54949219 10.98428711 -17.22949219 10.64428711 C-14.82378411 8.77417821 -12.40675064 6.92354237 -9.97949219 5.08178711 C-8.95662109 4.28224609 -8.95662109 4.28224609 -7.91308594 3.46655273 C-7.24921875 2.96704102 -6.58535156 2.4675293 -5.90136719 1.95288086 C-5.29389648 1.4868042 -4.68642578 1.02072754 -4.06054688 0.54052734 C-2.22949219 -0.35571289 -2.22949219 -0.35571289 0 0 Z " fill="#88B8CE" transform="translate(181.2294921875,202.355712890625)"/>
<path d="M0 0 C0.66 0.33 1.32 0.66 2 1 C-3.445 7.93 -3.445 7.93 -9 15 C-10 12 -10 12 -9 9.1875 C-6.55082967 5.28413478 -3.61641936 2.79405551 0 0 Z " fill="#85C0D5" transform="translate(84,152)"/>
<path d="M0 0 C-4.79920007 2.2952696 -9.26000226 3.57456397 -14.48828125 4.52734375 C-18.03678898 5.19510337 -21.50551241 6.09402174 -25 7 C-24 5 -24 5 -20.796875 3.74609375 C-19.45043939 3.30216993 -18.1013249 2.86631025 -16.75 2.4375 C-16.08097656 2.21642578 -15.41195312 1.99535156 -14.72265625 1.76757812 C-4.58548685 -1.52849562 -4.58548685 -1.52849562 0 0 Z " fill="#83C0D5" transform="translate(164,215)"/>
<path d="M0 0 C0.66 0.33 1.32 0.66 2 1 C-2.60136502 6.53601728 -7.46398272 11.39863498 -13 16 C-13.66 15.67 -14.32 15.34 -15 15 C-10.05 10.05 -5.1 5.1 0 0 Z " fill="#0E212A" transform="translate(147,46)"/>
<path d="M0 0 C1.17539996 0.92652701 2.34010577 1.86663387 3.5 2.8125 C4.1496875 3.33457031 4.799375 3.85664062 5.46875 4.39453125 C7 6 7 6 7 9 C6.01 8.34 5.02 7.68 4 7 C3.01 7 2.02 7 1 7 C0.34 7.66 -0.32 8.32 -1 9 C-2.25541557 5.23375329 -1.37061958 3.62811066 0 0 Z " fill="#81C6DC" transform="translate(50,100)"/>
<path d="M0 0 C-3.3 3.3 -6.6 6.6 -10 10 C-10.33 8.68 -10.66 7.36 -11 6 C-9.20990344 3.10174842 -7.29310805 0.44450589 -4 -0.6875 C-2 -1 -2 -1 0 0 Z " fill="#87C7DD" transform="translate(167,91)"/>
<path d="M0 0 C0.66 0 1.32 0 2 0 C1.98839844 1.15757813 1.97679687 2.31515625 1.96484375 3.5078125 C1.95545923 5.04687338 1.94635974 6.58593601 1.9375 8.125 C1.92912109 8.88554688 1.92074219 9.64609375 1.91210938 10.4296875 C1.89353491 14.7389644 2.13882735 18.75516474 3 23 C2.34 23 1.68 23 1 23 C1 22.34 1 21.68 1 21 C0.01 20.67 -0.98 20.34 -2 20 C-1.67 19.34 -1.34 18.68 -1 18 C-0.84995027 16.6265365 -0.75161994 15.2471474 -0.68359375 13.8671875 C-0.64169922 13.06152344 -0.59980469 12.25585938 -0.55664062 11.42578125 C-0.51732422 10.58402344 -0.47800781 9.74226563 -0.4375 8.875 C-0.39431641 8.02550781 -0.35113281 7.17601563 -0.30664062 6.30078125 C-0.20045764 4.20071777 -0.09971503 2.10038052 0 0 Z " fill="#0F1E28" transform="translate(51,61)"/>
<path d="M0 0 C0.66 0.33 1.32 0.66 2 1 C1.690625 1.598125 1.38125 2.19625 1.0625 2.8125 C-0.10209704 5.08956772 -0.10209704 5.08956772 -1 8 C-0.01 7.67 0.98 7.34 2 7 C1.67 8.32 1.34 9.64 1 11 C-0.65 10.67 -2.3 10.34 -4 10 C-4.33 10.66 -4.66 11.32 -5 12 C-5.8125 10.3125 -5.8125 10.3125 -6 8 C-3.625 5.4375 -3.625 5.4375 -1 3 C-0.67 2.01 -0.34 1.02 0 0 Z " fill="#7EBFD6" transform="translate(181,59)"/>
<path d="M0 0 C-14.25443787 7.51597633 -14.25443787 7.51597633 -19.265625 6.57421875 C-19.83796875 6.38472656 -20.4103125 6.19523438 -21 6 C-19.12616097 5.20558928 -17.25087114 4.41460026 -15.375 3.625 C-13.80878906 2.96371094 -13.80878906 2.96371094 -12.2109375 2.2890625 C-3.55629139 -1.18543046 -3.55629139 -1.18543046 0 0 Z " fill="#88B5C5" transform="translate(85,4)"/>
<path d="M0 0 C2.62187494 1.04874998 3.79371361 1.64931313 5.25 4.125 C5.4975 4.74375 5.745 5.3625 6 6 C3.69 7.65 1.38 9.3 -1 11 C-1 8 -1 8 0.0625 6.0625 C1.19407719 3.57303018 0.90064221 2.5217982 0 0 Z " fill="#86C0D4" transform="translate(76,127)"/>
<path d="M0 0 C3.45743005 2.85237979 4.89859263 4.14528078 5.4375 8.6875 C5 12 5 12 3 14 C2.67 11.69 2.34 9.38 2 7 C1.34 7 0.68 7 0 7 C0 4.69 0 2.38 0 0 Z " fill="#7CB8CF" transform="translate(171,166)"/>
<path d="M0 0 C0 4.09939665 -1.52298101 5.78656995 -4 9 C-6.625 10.9375 -6.625 10.9375 -9 12 C-9.66 11.67 -10.32 11.34 -11 11 C-7.37 7.37 -3.74 3.74 0 0 Z " fill="#03101A" transform="translate(166,91)"/>
<path d="M0 0 C0.66 0 1.32 0 2 0 C2.8125 1.6875 2.8125 1.6875 3 4 C0.8386373 6.51185394 -1.01962439 8.50981219 -4 10 C-3.52449439 8.51965236 -3.04448784 7.04074979 -2.5625 5.5625 C-2.29566406 4.73878906 -2.02882813 3.91507812 -1.75390625 3.06640625 C-1 1 -1 1 0 0 Z " fill="#081015" transform="translate(116,80)"/>
<path d="M0 0 C0.33 1.32 0.66 2.64 1 4 C0.01 4 -0.98 4 -2 4 C-2.33 5.65 -2.66 7.3 -3 9 C-3.66 9 -4.32 9 -5 9 C-5 9.66 -5 10.32 -5 11 C-6.32 10.34 -7.64 9.68 -9 9 C-6.03 6.03 -3.06 3.06 0 0 Z " fill="#81C0D5" transform="translate(174,68)"/>
<path d="M0 0 C0.66 0.99 1.32 1.98 2 3 C-1 3 -1 3 -3.875 2.75 C-7.74221052 3.05937684 -9.22282469 4.38618794 -12 7 C-9.75504419 0.43782149 -6.82067806 -0.62006164 0 0 Z " fill="#87C5DB" transform="translate(61,36)"/>
<path d="M0 0 C0.33 0.66 0.66 1.32 1 2 C0.01 2.99 -0.98 3.98 -2 5 C-1.34 5.33 -0.68 5.66 0 6 C-4.95 5.67 -9.9 5.34 -15 5 C-15 4.67 -15 4.34 -15 4 C-14.25234375 3.87882813 -13.5046875 3.75765625 -12.734375 3.6328125 C-11.74953125 3.46523437 -10.7646875 3.29765625 -9.75 3.125 C-8.77546875 2.96257812 -7.8009375 2.80015625 -6.796875 2.6328125 C-4.22735883 2.05144152 -2.27928944 1.29159735 0 0 Z " fill="#85C0DA" transform="translate(179,191)"/>
<path d="M0 0 C2.97 0.495 2.97 0.495 6 1 C5 4 5 4 3 5 C1.00039988 5.039992 -1.00047242 5.04346799 -3 5 C-3.33 4.34 -3.66 3.68 -4 3 C-3.01 3 -2.02 3 -1 3 C-0.67 2.01 -0.34 1.02 0 0 Z " fill="#84C4D7" transform="translate(58,178)"/>
<path d="M0 0 C0.66 0.33 1.32 0.66 2 1 C-1.3 4.96 -4.6 8.92 -8 13 C-8.66 12.34 -9.32 11.68 -10 11 C-9.01 10.67 -8.02 10.34 -7 10 C-7 9.01 -7 8.02 -7 7 C-6.34 7 -5.68 7 -5 7 C-4.731875 6.21625 -4.46375 5.4325 -4.1875 4.625 C-3 2 -3 2 0 0 Z " fill="#04121B" transform="translate(86,169)"/>
<path d="M0 0 C0 4.0234866 -1.76191846 5.70870362 -4 9 C-4.71573527 10.64619113 -5.4025696 12.30728055 -6 14 C-6.66 13.67 -7.32 13.34 -8 13 C-7.48118887 8.8275894 -6.28848726 6.74583179 -3.4375 3.6875 C-2.79683594 2.99011719 -2.15617188 2.29273437 -1.49609375 1.57421875 C-1.00238281 1.05472656 -0.50867188 0.53523438 0 0 Z " fill="#12262F" transform="translate(146,79)"/>
<path d="M0 0 C-0.33 1.32 -0.66 2.64 -1 4 C-0.01 4 0.98 4 2 4 C2.33 5.65 2.66 7.3 3 9 C1.87105124 8.06725891 0.74699124 7.12859878 -0.375 6.1875 C-1.00148437 5.66542969 -1.62796875 5.14335938 -2.2734375 4.60546875 C-4 3 -4 3 -6 0 C-2.25 -1.125 -2.25 -1.125 0 0 Z " fill="#7FAEC1" transform="translate(149,121)"/>
<path d="M0 0 C0.33 0 0.66 0 1 0 C0.67 2.31 0.34 4.62 0 7 C-2.046875 7.51171875 -4.09375 8.0234375 -6.140625 8.53515625 C-7.06101563 8.76525391 -7.06101563 8.76525391 -8 9 C-7.04270084 7.87411986 -6.08412105 6.7493285 -5.125 5.625 C-4.59132812 4.99851562 -4.05765625 4.37203125 -3.5078125 3.7265625 C-2.38567993 2.44163349 -1.20628025 1.20628025 0 0 Z " fill="#88C7DD" transform="translate(151,59)"/>
<path d="M0 0 C4.88049925 3.9419417 9.0580583 8.11950075 13 13 C8.72547181 12.18241873 7.60891491 10.47855322 5 7 C4.0925 6.113125 3.185 5.22625 2.25 4.3125 C0 2 0 2 0 0 Z " fill="#010C14" transform="translate(172,151)"/>
<path d="M0 0 C0.66 0 1.32 0 2 0 C2 0.99 2 1.98 2 3 C1.34 3 0.68 3 0 3 C0.103125 3.763125 0.20625 4.52625 0.3125 5.3125 C0.209375 6.199375 0.10625 7.08625 0 8 C-2.375 9.875 -2.375 9.875 -5 11 C-5.66 10.67 -6.32 10.34 -7 10 C-6.21625 9.0925 -5.4325 8.185 -4.625 7.25 C-2.69947504 4.94809764 -1.17794259 2.78422793 0 0 Z " fill="#81BDD0" transform="translate(187,180)"/>
<path d="M0 0 C0.103125 0.639375 0.20625 1.27875 0.3125 1.9375 C0.539375 2.618125 0.76625 3.29875 1 4 C1.99 4.33 2.98 4.66 4 5 C3.01 5.495 3.01 5.495 2 6 C2 6.99 2 7.98 2 9 C2.99 9.33 3.98 9.66 5 10 C4.01 10.66 3.02 11.32 2 12 C0 10 0 10 -0.1953125 7.6171875 C-0.17210938 6.71226563 -0.14890625 5.80734375 -0.125 4.875 C-0.10695313 3.96492188 -0.08890625 3.05484375 -0.0703125 2.1171875 C-0.04710938 1.41851562 -0.02390625 0.71984375 0 0 Z " fill="#7DB8CB" transform="translate(123,92)"/>
<path d="M0 0 C0.66 0 1.32 0 2 0 C2.61528766 5.07612318 0.61658349 7.82982006 -2 12 C-3.60170888 7.9957278 -2.34040384 4.94674464 -1 1 C-0.67 0.67 -0.34 0.34 0 0 Z " fill="#060D10" transform="translate(127,78)"/>
<path d="M0 0 C1.17539996 0.92652701 2.34010577 1.86663387 3.5 2.8125 C4.1496875 3.33457031 4.799375 3.85664062 5.46875 4.39453125 C7 6 7 6 7 9 C5 9 5 9 2.375 6.75 C0 4 0 4 0 0 Z " fill="#81B9CF" transform="translate(93,88)"/>
<path d="M0 0 C-0.33 0.99 -0.66 1.98 -1 3 C-2.98 3 -4.96 3 -7 3 C-7 2.34 -7 1.68 -7 1 C-7.66 0.67 -8.32 0.34 -9 0 C-5.93109813 -1.53445094 -3.29905734 -0.54984289 0 0 Z " fill="#7DD0EE" transform="translate(172,178)"/>
<path d="M0 0 C1.32 0.33 2.64 0.66 4 1 C4 2.32 4 3.64 4 5 C1 6 1 6 -2 5 C-1.34 3.35 -0.68 1.7 0 0 Z " fill="#7DC4DA" transform="translate(129,81)"/>
<path d="M0 0 C2.375 0.25 2.375 0.25 5 1 C6.125 2.875 6.125 2.875 7 5 C8.5412312 6.70921589 8.5412312 6.70921589 10 8 C9.67 8.66 9.34 9.32 9 10 C7.49702124 8.52386015 5.99768715 7.04400843 4.5 5.5625 C3.6646875 4.73878906 2.829375 3.91507812 1.96875 3.06640625 C0 1 0 1 0 0 Z " fill="#8AC9E1" transform="translate(81,113)"/>
<path d="M0 0 C0.763125 0.309375 1.52625 0.61875 2.3125 0.9375 C4.18789677 1.67893593 6.08684652 2.36228217 8 3 C8 4.65 8 6.3 8 8 C6.85073734 7.04578192 5.70569459 6.08647955 4.5625 5.125 C3.92441406 4.59132813 3.28632812 4.05765625 2.62890625 3.5078125 C1 2 1 2 0 0 Z " fill="#010C16" transform="translate(66,115)"/>
<path d="M0 0 C1.17539996 0.92652701 2.34010577 1.86663387 3.5 2.8125 C4.1496875 3.33457031 4.799375 3.85664062 5.46875 4.39453125 C7 6 7 6 7 9 C6.01 8.67 5.02 8.34 4 8 C4 7.34 4 6.68 4 6 C3.34 6 2.68 6 2 6 C1.34 4.02 0.68 2.04 0 0 Z " fill="#84BFD9" transform="translate(58,108)"/>
<path d="M0 0 C0.66 0.99 1.32 1.98 2 3 C0.25 5.0625 0.25 5.0625 -2 7 C-3.32 6.67 -4.64 6.34 -6 6 C-4.02 4.02 -2.04 2.04 0 0 Z " fill="#020F17" transform="translate(131,62)"/>
<path d="M0 0 C1.98 0 3.96 0 6 0 C6 2.31 6 4.62 6 7 C3.95880212 5.38405168 1.95927063 3.7143618 0 2 C0 1.34 0 0.68 0 0 Z " fill="#7EBDD4" transform="translate(71,48)"/>
<path d="M0 0 C-0.33 1.32 -0.66 2.64 -1 4 C0.32 3.67 1.64 3.34 3 3 C3 3.66 3 4.32 3 5 C2.34 5 1.68 5 1 5 C0.67 5.99 0.34 6.98 0 8 C-4 3.25 -4 3.25 -4 1 C-2 0 -2 0 0 0 Z " fill="#81BED4" transform="translate(146,155)"/>
<path d="M0 0 C2.81532759 0.21656366 4.55531511 0.68872057 6.875 2.3125 C8 4 8 4 7.6875 6.1875 C7.3471875 7.0846875 7.3471875 7.0846875 7 8 C6.814375 7.38125 6.62875 6.7625 6.4375 6.125 C4.28562767 2.94397134 1.62466237 2.80548053 -2 2 C-1.34 1.34 -0.68 0.68 0 0 Z " fill="#172F3C" transform="translate(190,68)"/>
<path d="M0 0 C2.31 0 4.62 0 7 0 C7.66 1.65 8.32 3.3 9 5 C6.03 4.01 3.06 3.02 0 2 C0 1.34 0 0.68 0 0 Z " fill="#81B9D1" transform="translate(158,35)"/>
<path d="M0 0 C0.70125 0.309375 1.4025 0.61875 2.125 0.9375 C5.08936657 2.03302678 7.87698108 2.56422992 11 3 C8.81258515 5.18741485 8.05191378 5.82560493 5 6 C2.25 4.1875 2.25 4.1875 0 2 C0 1.34 0 0.68 0 0 Z " fill="#82BED0" transform="translate(48,192)"/>
<path d="M0 0 C0.66 0 1.32 0 2 0 C2.33 1.32 2.66 2.64 3 4 C4.32 4.33 5.64 4.66 7 5 C7 5.66 7 6.32 7 7 C7.66 7.33 8.32 7.66 9 8 C6.31325398 7.63692621 4.44127696 7.33095772 2.25 5.6875 C0.85255754 3.80095268 0.3962081 2.29800696 0 0 Z " fill="#83B9D3" transform="translate(35,193)"/>
<path d="M0 0 C0.66 0 1.32 0 2 0 C3.625 2.5 3.625 2.5 5 5 C4.34 5.66 3.68 6.32 3 7 C3 6.01 3 5.02 3 4 C1.68 3.67 0.36 3.34 -1 3 C-0.67 2.01 -0.34 1.02 0 0 Z M1 5 C1.99 6.485 1.99 6.485 3 8 C2.34 8 1.68 8 1 8 C1 7.01 1 6.02 1 5 Z " fill="#82C5DD" transform="translate(146,182)"/>
<path d="M0 0 C0.66 0.33 1.32 0.66 2 1 C-1.96 4.465 -1.96 4.465 -6 8 C-6.33 6.68 -6.66 5.36 -7 4 C-1.7265625 0.77734375 -1.7265625 0.77734375 0 0 Z " fill="#80B8D0" transform="translate(65,144)"/>
<path d="M0 0 C2.37948772 0.17625835 3.70225849 0.69719773 5.37890625 2.40234375 C6.62115486 3.90649092 7.81376056 5.45129851 9 7 C6 7 6 7 3.8125 5.125 C2 3 2 3 2 1 C1.34 0.67 0.68 0.34 0 0 Z " fill="#83B9CD" transform="translate(112,109)"/>
<path d="M0 0 C0.66 0.33 1.32 0.66 2 1 C1.5359375 1.8353125 1.5359375 1.8353125 1.0625 2.6875 C-0.10657641 4.98803319 -0.10657641 4.98803319 -0.5 7.625 C-1 10 -1 10 -3 12 C-3.2954439 6.97745369 -2.98514628 4.10457614 0 0 Z " fill="#84BDD6" transform="translate(140,82)"/>
<path d="M0 0 C1.98 1.65 3.96 3.3 6 5 C5.34 5.66 4.68 6.32 4 7 C4 6.34 4 5.68 4 5 C2.35 5.33 0.7 5.66 -1 6 C-1.33 5.01 -1.66 4.02 -2 3 C-1.34 3 -0.68 3 0 3 C0 2.01 0 1.02 0 0 Z " fill="#7CBAD3" transform="translate(87,82)"/>
<path d="M0 0 C0 3.21264235 -0.7685893 5.07539958 -2 8 C-2 8.33 -2 8.66 -2 9 C-3.65 9 -5.3 9 -7 9 C-6.02180976 7.68677212 -5.0424189 6.37443848 -4.0625 5.0625 C-3.51722656 4.33160156 -2.97195312 3.60070312 -2.41015625 2.84765625 C-1 1 -1 1 0 0 Z " fill="#7FB6C8" transform="translate(78,181)"/>
<path d="M0 0 C0.99 0.33 1.98 0.66 3 1 C0.69 3.31 -1.62 5.62 -4 8 C-4.66 6.68 -5.32 5.36 -6 4 C-4.7934375 3.566875 -4.7934375 3.566875 -3.5625 3.125 C-0.8673532 2.26737432 -0.8673532 2.26737432 0 0 Z " fill="#8DC6D9" transform="translate(172,82)"/>
<path d="M0 0 C0 3.59857954 -0.95830515 5.09451118 -3 8 C-3.66 8 -4.32 8 -5 8 C-5 8.66 -5 9.32 -5 10 C-5.66 9.67 -6.32 9.34 -7 9 C-4.69 6.03 -2.38 3.06 0 0 Z " fill="#061420" transform="translate(124,69)"/>
<path d="M0 0 C0 0.99 0 1.98 0 3 C-2.5 5.1875 -2.5 5.1875 -5 7 C-5.33 6.01 -5.66 5.02 -6 4 C-3.94766315 1.7522025 -2.99332739 0.9977758 0 0 Z " fill="#0B161E" transform="translate(153,74)"/>
<path d="M0 0 C0.66 0.33 1.32 0.66 2 1 C1.67 2.32 1.34 3.64 1 5 C0.01 4.67 -0.98 4.34 -2 4 C-2 4.66 -2 5.32 -2 6 C-2.99 5.67 -3.98 5.34 -5 5 C-3.35 3.35 -1.7 1.7 0 0 Z " fill="#82C0D6" transform="translate(68,158)"/>
<path d="M0 0 C2.31 1.98 4.62 3.96 7 6 C6.34 6.66 5.68 7.32 5 8 C4.01 7.34 3.02 6.68 2 6 C2 5.01 2 4.02 2 3 C1.34 3 0.68 3 0 3 C0 2.01 0 1.02 0 0 Z " fill="#81B7CD" transform="translate(130,125)"/>
<path d="M0 0 C-3.465 2.97 -3.465 2.97 -7 6 C-7 4.02 -7 2.04 -7 0 C-2.25 -1.125 -2.25 -1.125 0 0 Z " fill="#010B14" transform="translate(162,81)"/>
<path d="M0 0 C0.33 0.99 0.66 1.98 1 3 C-1.15343189 6.23014784 -2.27059611 7.75686537 -6 9 C-4.47291037 5.56404834 -2.40072955 2.88087546 0 0 Z " fill="#05151F" transform="translate(70,172)"/>
<path d="M0 0 C3.36720387 1.39332574 4.9859524 2.9789286 7 6 C6.01 6 5.02 6 4 6 C4 5.34 4 4.68 4 4 C2.68 3.67 1.36 3.34 0 3 C0 2.01 0 1.02 0 0 Z " fill="#82BBD1" transform="translate(160,156)"/>
<path d="M0 0 C0 3 0 3 -1.875 5.1875 C-4 7 -4 7 -6 7 C-4.60667426 3.63279613 -3.0210714 2.0140476 0 0 Z " fill="#06171E" transform="translate(72,140)"/>
<path d="M0 0 C1.32 0 2.64 0 4 0 C5.8125 2.375 5.8125 2.375 7 5 C6.67 5.66 6.34 6.32 6 7 C4.02 4.69 2.04 2.38 0 0 Z " fill="#8ACBDE" transform="translate(74,106)"/>
<path d="M0 0 C1 2 1 2 0.375 4.0625 C-1 6 -1 6 -3.625 6.75 C-4.800625 6.87375 -4.800625 6.87375 -6 7 C-4.02 4.69 -2.04 2.38 0 0 Z " fill="#051620" transform="translate(187,70)"/>
<path d="M0 0 C0.99 0.33 1.98 0.66 3 1 C0.69 2.65 -1.62 4.3 -4 6 C-4.33 5.01 -4.66 4.02 -5 3 C-2.6875 1.4375 -2.6875 1.4375 0 0 Z " fill="#06131C" transform="translate(61,162)"/>
<path d="M0 0 C0.66 0.33 1.32 0.66 2 1 C2 1.66 2 2.32 2 3 C-1.40562852 3.77842938 -4.50765756 4.09978121 -8 4 C-6.66666667 3.33333333 -5.33333333 2.66666667 -4 2 C-3.29875 1.608125 -2.5975 1.21625 -1.875 0.8125 C-1.25625 0.544375 -0.6375 0.27625 0 0 Z " fill="#081720" transform="translate(147,107)"/>
<path d="M0 0 C0.66 0.33 1.32 0.66 2 1 C-0.31 3.31 -2.62 5.62 -5 8 C-5.33 7.34 -5.66 6.68 -6 6 C-4 4 -2 2 0 0 Z " fill="#000D15" transform="translate(169,71)"/>
<path d="M0 0 C4.42857143 5.14285714 4.42857143 5.14285714 5 9 C4.34 9 3.68 9 3 9 C0.56839395 5.63316085 0 4.26649636 0 0 Z " fill="#87ABBB" transform="translate(212,58)"/>
<path d="M0 0 C1.9375 0.6875 1.9375 0.6875 4 2 C4.75 4.625 4.75 4.625 5 7 C3.02 5.35 1.04 3.7 -1 2 C-0.67 1.34 -0.34 0.68 0 0 Z " fill="#81B6CC" transform="translate(82,58)"/>
<path d="M0 0 C0.99 0.33 1.98 0.66 3 1 C1.35 2.98 -0.3 4.96 -2 7 C-2.33 6.01 -2.66 5.02 -3 4 C-2.67 3.34 -2.34 2.68 -2 2 C-1.34 2.33 -0.68 2.66 0 3 C0 2.01 0 1.02 0 0 Z " fill="#89CCE1" transform="translate(168,53)"/>
<path d="M0 0 C0.33 0.66 0.66 1.32 1 2 C1.66 2 2.32 2 3 2 C3 2.66 3 3.32 3 4 C0.6875 4.625 0.6875 4.625 -2 5 C-2.99 4.34 -3.98 3.68 -5 3 C-3.35 2.67 -1.7 2.34 0 2 C0 1.34 0 0.68 0 0 Z " fill="#8CCAE2" transform="translate(85,2)"/>
</svg>
